<svg width="60" height="60" viewBox="0 0 60 60" fill="none" xmlns="http://www.w3.org/2000/svg">
<path d="M36.0758 47.0508C35.6008 47.0508 35.1258 46.8758 34.7508 46.5008C34.0258 45.7758 34.0258 44.5758 34.7508 43.8508L48.6008 30.0008L34.7508 16.1508C34.0258 15.4258 34.0258 14.2258 34.7508 13.5008C35.4758 12.7758 36.6758 12.7758 37.4008 13.5008L52.5758 28.6758C53.3008 29.4008 53.3008 30.6008 52.5758 31.3258L37.4008 46.5008C37.0258 46.8758 36.5508 47.0508 36.0758 47.0508Z" fill="#E7E7E7"/>
<path d="M50.825 31.875H8.75C7.725 31.875 6.875 31.025 6.875 30C6.875 28.975 7.725 28.125 8.75 28.125H50.825C51.85 28.125 52.7 28.975 52.7 30C52.7 31.025 51.85 31.875 50.825 31.875Z" fill="#E7E7E7"/>
</svg>
