<svg width="24" height="24" viewBox="0 0 24 24" fill="none" xmlns="http://www.w3.org/2000/svg">
<path fill-rule="evenodd" clip-rule="evenodd" d="M6.94695 4.08342C7.59544 4.07138 8.243 4.13786 8.87551 4.28142C9.40806 4.39769 9.91367 4.61405 10.3655 4.91899C10.7828 5.22223 11.1129 5.6299 11.3228 6.10108C11.5641 6.68047 11.6805 7.30422 11.6644 7.93162C11.6918 8.62052 11.5158 9.30225 11.1585 9.89186C10.7825 10.4487 10.2629 10.8935 9.65465 11.1789C10.4801 11.4014 11.199 11.9111 11.6822 12.6164C12.1461 13.3637 12.3792 14.2311 12.3525 15.1102C12.3677 15.8112 12.2228 16.5063 11.9287 17.1428C11.6569 17.6979 11.2588 18.1818 10.7664 18.5555C10.2595 18.9252 9.68905 19.1986 9.08341 19.3624C8.45535 19.5361 7.80651 19.6234 7.15486 19.6218H0V4.08342H6.94695ZM6.53412 10.3681C7.04364 10.3891 7.54521 10.2365 7.95677 9.93542C8.15388 9.75995 8.30721 9.5408 8.4045 9.2955C8.5018 9.05019 8.54037 8.78553 8.51712 8.52266C8.53031 8.21564 8.46918 7.90998 8.33892 7.63164C8.22842 7.41004 8.05661 7.22483 7.84391 7.09802C7.62848 6.95845 7.38643 6.86507 7.13308 6.82379C6.85818 6.77054 6.57845 6.74631 6.29849 6.75152H3.24132V10.3819H6.53412V10.3681ZM6.71232 16.9834C7.02046 16.9875 7.32796 16.9543 7.62809 16.8844C7.90236 16.8238 8.16247 16.7112 8.39436 16.5527C8.62153 16.3943 8.80506 16.1811 8.92798 15.933C9.0705 15.6165 9.13598 15.2708 9.11905 14.9241C9.14995 14.6082 9.10811 14.2894 8.99674 13.9922C8.88537 13.695 8.70742 13.4272 8.47653 13.2094C7.98717 12.849 7.38745 12.6704 6.78063 12.7045H3.24132V16.9834H6.71232Z" fill="#0057FF"/>
<path fill-rule="evenodd" clip-rule="evenodd" d="M16.9689 16.9259C17.2233 17.1617 17.523 17.3433 17.8497 17.4597C18.1765 17.5761 18.5235 17.6249 18.8697 17.603C19.4185 17.6169 19.9567 17.4499 20.4013 17.1278C20.7629 16.8927 21.0368 16.5446 21.1804 16.1378H23.7653C23.4899 17.296 22.8173 18.321 21.8645 19.0346C20.9504 19.6413 19.8702 19.9486 18.7737 19.9137C17.9911 19.924 17.2144 19.7769 16.4897 19.4811C15.8342 19.2077 15.2463 18.7945 14.7671 18.2703C14.2897 17.721 13.9229 17.0847 13.687 16.3962C13.4221 15.6267 13.2925 14.8171 13.3038 14.0033C13.299 13.2032 13.433 12.4083 13.6998 11.654C14.0583 10.5928 14.7438 9.67248 15.6578 9.02506C16.5719 8.37763 17.6675 8.0364 18.7875 8.05034C19.6144 8.03306 20.4321 8.22658 21.1636 8.61267C21.8247 8.97522 22.3951 9.48296 22.8318 10.0977C23.2784 10.7428 23.5986 11.4667 23.7752 12.2312C23.969 13.0521 24.0381 13.8975 23.9802 14.7389H16.2808C16.2184 15.5295 16.4651 16.3134 16.9689 16.9259ZM20.3468 11.0164C20.1314 10.8009 19.8722 10.6341 19.5868 10.5272C19.3015 10.4203 18.9965 10.3758 18.6925 10.3967C18.2892 10.3813 17.8887 10.4707 17.5302 10.6561C17.246 10.8125 16.9951 11.0231 16.7917 11.2758C16.6114 11.5128 16.4771 11.7814 16.3957 12.0678C16.3223 12.3067 16.2765 12.5532 16.259 12.8024H21.0279C20.9864 12.1526 20.7497 11.5305 20.3488 11.0174L20.3468 11.0164Z" fill="#0057FF"/>
<path d="M15.6443 5.1209H21.62V6.6485H15.6443V5.1209Z" fill="#0057FF"/>
</svg>
