<svg width="24" height="24" viewBox="0 0 24 24" fill="none" xmlns="http://www.w3.org/2000/svg">
<rect x="0.5" y="0.5" width="23" height="23" rx="4" fill="url(#paint0_radial_691_9416)"/>
<rect x="0.5" y="0.5" width="23" height="23" rx="4" fill="url(#paint1_radial_691_9416)"/>
<rect x="0.5" y="0.5" width="23" height="23" rx="4" fill="url(#paint2_radial_691_9416)"/>
<path d="M18.025 7.2125C18.025 7.89595 17.471 8.45 16.7875 8.45C16.104 8.45 15.55 7.89595 15.55 7.2125C15.55 6.52905 16.104 5.975 16.7875 5.975C17.471 5.975 18.025 6.52905 18.025 7.2125Z" fill="white"/>
<path fill-rule="evenodd" clip-rule="evenodd" d="M12.25 15.875C14.5282 15.875 16.375 14.0282 16.375 11.75C16.375 9.47183 14.5282 7.625 12.25 7.625C9.97183 7.625 8.125 9.47183 8.125 11.75C8.125 14.0282 9.97183 15.875 12.25 15.875ZM12.25 14.225C13.6169 14.225 14.725 13.1169 14.725 11.75C14.725 10.3831 13.6169 9.275 12.25 9.275C10.8831 9.275 9.775 10.3831 9.775 11.75C9.775 13.1169 10.8831 14.225 12.25 14.225Z" fill="white"/>
<path fill-rule="evenodd" clip-rule="evenodd" d="M4 11.42C4 8.64774 4 7.26161 4.53952 6.20275C5.01409 5.27134 5.77134 4.51409 6.70275 4.03952C7.76161 3.5 9.14774 3.5 11.92 3.5H12.58C15.3523 3.5 16.7384 3.5 17.7973 4.03952C18.7287 4.51409 19.4859 5.27134 19.9605 6.20275C20.5 7.26161 20.5 8.64774 20.5 11.42V12.08C20.5 14.8523 20.5 16.2384 19.9605 17.2973C19.4859 18.2287 18.7287 18.9859 17.7973 19.4605C16.7384 20 15.3523 20 12.58 20H11.92C9.14774 20 7.76161 20 6.70275 19.4605C5.77134 18.9859 5.01409 18.2287 4.53952 17.2973C4 16.2384 4 14.8523 4 12.08V11.42ZM11.92 5.15H12.58C13.9934 5.15 14.9541 5.15128 15.6968 5.21196C16.4202 5.27106 16.7901 5.37819 17.0482 5.50968C17.6691 5.82606 18.1739 6.3309 18.4903 6.95183C18.6218 7.20989 18.7289 7.57983 18.788 8.30321C18.8487 9.04586 18.85 10.0066 18.85 11.42V12.08C18.85 13.4934 18.8487 14.4541 18.788 15.1968C18.7289 15.9202 18.6218 16.2901 18.4903 16.5482C18.1739 17.1691 17.6691 17.6739 17.0482 17.9903C16.7901 18.1218 16.4202 18.2289 15.6968 18.288C14.9541 18.3487 13.9934 18.35 12.58 18.35H11.92C10.5066 18.35 9.54586 18.3487 8.80321 18.288C8.07983 18.2289 7.70989 18.1218 7.45183 17.9903C6.8309 17.6739 6.32606 17.1691 6.00968 16.5482C5.87819 16.2901 5.77106 15.9202 5.71196 15.1968C5.65128 14.4541 5.65 13.4934 5.65 12.08V11.42C5.65 10.0066 5.65128 9.04586 5.71196 8.30321C5.77106 7.57983 5.87819 7.20989 6.00968 6.95183C6.32606 6.3309 6.8309 5.82606 7.45183 5.50968C7.70989 5.37819 8.07983 5.27106 8.80321 5.21196C9.54586 5.15128 10.5066 5.15 11.92 5.15Z" fill="white"/>
<defs>
<radialGradient id="paint0_radial_691_9416" cx="0" cy="0" r="1" gradientUnits="userSpaceOnUse" gradientTransform="translate(8.71428 17.75) rotate(-55.3758) scale(20.9625)">
<stop stop-color="#B13589"/>
<stop offset="0.79309" stop-color="#C62F94"/>
<stop offset="1" stop-color="#8A3AC8"/>
</radialGradient>
<radialGradient id="paint1_radial_691_9416" cx="0" cy="0" r="1" gradientUnits="userSpaceOnUse" gradientTransform="translate(7.89286 24.3214) rotate(-65.1363) scale(18.5596)">
<stop stop-color="#E0E8B7"/>
<stop offset="0.444662" stop-color="#FB8A2E"/>
<stop offset="0.71474" stop-color="#E2425C"/>
<stop offset="1" stop-color="#E2425C" stop-opacity="0"/>
</radialGradient>
<radialGradient id="paint2_radial_691_9416" cx="0" cy="0" r="1" gradientUnits="userSpaceOnUse" gradientTransform="translate(-0.732142 1.32143) rotate(-8.1301) scale(31.9461 6.83294)">
<stop offset="0.156701" stop-color="#406ADC"/>
<stop offset="0.467799" stop-color="#6A45BE"/>
<stop offset="1" stop-color="#6A45BE" stop-opacity="0"/>
</radialGradient>
</defs>
</svg>
