<svg width="36" height="36" viewBox="0 0 36 36" fill="none" xmlns="http://www.w3.org/2000/svg">
<path d="M22.5 34.125H13.5C5.355 34.125 1.875 30.645 1.875 22.5V13.5C1.875 5.355 5.355 1.875 13.5 1.875H22.5C30.645 1.875 34.125 5.355 34.125 13.5V22.5C34.125 30.645 30.645 34.125 22.5 34.125ZM13.5 4.125C6.585 4.125 4.125 6.585 4.125 13.5V22.5C4.125 29.415 6.585 31.875 13.5 31.875H22.5C29.415 31.875 31.875 29.415 31.875 22.5V13.5C31.875 6.585 29.415 4.125 22.5 4.125H13.5Z" fill="#E7E7E7"/>
<path d="M18 24.375C14.49 24.375 11.625 21.51 11.625 18C11.625 14.49 14.49 11.625 18 11.625C21.51 11.625 24.375 14.49 24.375 18C24.375 21.51 21.51 24.375 18 24.375ZM18 13.875C15.72 13.875 13.875 15.72 13.875 18C13.875 20.28 15.72 22.125 18 22.125C20.28 22.125 22.125 20.28 22.125 18C22.125 15.72 20.28 13.875 18 13.875Z" fill="#E7E7E7"/>
<path d="M25.5 11.2494C25.305 11.2494 25.11 11.2044 24.93 11.1294C24.75 11.0544 24.585 10.9494 24.435 10.8144C24.3 10.6644 24.18 10.4994 24.105 10.3194C24.03 10.1394 24 9.94437 24 9.74937C24 9.55437 24.03 9.35937 24.105 9.17937C24.195 8.98437 24.3 8.83437 24.435 8.68437C24.51 8.62437 24.585 8.54937 24.66 8.50437C24.75 8.44437 24.84 8.39937 24.93 8.36937C25.02 8.32437 25.11 8.29437 25.215 8.27937C25.695 8.17437 26.205 8.33937 26.565 8.68437C26.7 8.83437 26.805 8.98437 26.88 9.17937C26.955 9.35937 27 9.55437 27 9.74937C27 9.94437 26.955 10.1394 26.88 10.3194C26.805 10.4994 26.7 10.6644 26.565 10.8144C26.415 10.9494 26.25 11.0544 26.07 11.1294C25.89 11.2044 25.695 11.2494 25.5 11.2494Z" fill="#E7E7E7"/>
</svg>
