<svg width="24" height="24" viewBox="0 0 24 24" fill="none" xmlns="http://www.w3.org/2000/svg">
<g clip-path="url(#clip0_691_9415)">
<path d="M22.2283 0H1.77167C1.30179 0 0.851161 0.186657 0.518909 0.518909C0.186657 0.851161 0 1.30179 0 1.77167V22.2283C0 22.6982 0.186657 23.1488 0.518909 23.4811C0.851161 23.8133 1.30179 24 1.77167 24H22.2283C22.6982 24 23.1488 23.8133 23.4811 23.4811C23.8133 23.1488 24 22.6982 24 22.2283V1.77167C24 1.30179 23.8133 0.851161 23.4811 0.518909C23.1488 0.186657 22.6982 0 22.2283 0ZM7.15333 18.6408C7.15333 19.6372 6.34558 20.445 5.34917 20.445C4.35275 20.445 3.545 19.6372 3.545 18.6408V10.7875C3.545 9.79109 4.35275 8.98333 5.34917 8.98333C6.34558 8.98333 7.15333 9.79109 7.15333 10.7875V18.6408ZM5.34667 7.395C4.93736 7.3927 4.53792 7.2692 4.19873 7.04009C3.85955 6.81098 3.59584 6.48653 3.44088 6.10769C3.28591 5.72885 3.24665 5.31259 3.32803 4.91145C3.40941 4.51032 3.6078 4.14228 3.89816 3.85378C4.18851 3.56529 4.55782 3.36927 4.95947 3.29046C5.36112 3.21165 5.77711 3.25359 6.15495 3.41099C6.53279 3.56838 6.85554 3.83417 7.08247 4.17481C7.30939 4.51546 7.43032 4.91569 7.43 5.325C7.43386 5.59903 7.38251 5.87104 7.27901 6.1248C7.17551 6.37857 7.02198 6.6089 6.82757 6.80207C6.63316 6.99523 6.40185 7.14728 6.14742 7.24915C5.893 7.35102 5.62067 7.40062 5.34667 7.395ZM20.4538 18.6519C20.4535 19.6478 19.6461 20.455 18.6502 20.455C17.6541 20.455 16.8467 19.6475 16.8467 18.6515V14.1933C16.8467 12.3467 16.0617 11.7767 15.0483 11.7767C13.9783 11.7767 12.9283 12.5833 12.9283 14.24V18.6508C12.9283 19.6472 12.1206 20.455 11.1242 20.455C10.1278 20.455 9.32 19.6472 9.32 18.6508V10.7267C9.32 9.76846 10.0968 8.99167 11.055 8.99167H11.9958C12.4344 8.99167 12.79 9.34723 12.79 9.78583V10.5512C12.79 10.5671 12.8029 10.58 12.8188 10.58C12.8297 10.58 12.8395 10.5742 12.8445 10.5644C13.2029 9.85738 14.4187 8.67 16.2667 8.67C18.28 8.67 20.455 9.865 20.455 13.365L20.4538 18.6519Z" fill="#0A66C2"/>
</g>
<defs>
<clipPath id="clip0_691_9415">
<rect width="24" height="24" fill="white"/>
</clipPath>
</defs>
</svg>
