<svg width="117" height="68" viewBox="0 0 117 68" fill="none" xmlns="http://www.w3.org/2000/svg">
<path d="M31.0851 31L21.2931 8.6H25.8051L34.5411 28.856H31.9491L40.7811 8.6H44.9411L35.1811 31H31.0851ZM47.0771 31V13.912H51.0771V31H47.0771ZM49.0931 11.096C48.3465 11.096 47.7278 10.8613 47.2371 10.392C46.7678 9.92267 46.5331 9.35733 46.5331 8.696C46.5331 8.01333 46.7678 7.448 47.2371 7C47.7278 6.53067 48.3465 6.296 49.0931 6.296C49.8398 6.296 50.4478 6.52 50.9171 6.968C51.4078 7.39467 51.6531 7.93867 51.6531 8.6C51.6531 9.304 51.4185 9.90133 50.9491 10.392C50.4798 10.8613 49.8611 11.096 49.0931 11.096ZM65.7991 31.224C64.3485 31.224 63.0578 30.904 61.9271 30.264C60.7965 29.624 59.9005 28.664 59.2391 27.384C58.5991 26.0827 58.2791 24.44 58.2791 22.456C58.2791 20.4507 58.6098 18.808 59.2711 17.528C59.9538 16.248 60.8605 15.2987 61.9911 14.68C63.1431 14.04 64.4125 13.72 65.7991 13.72C67.4845 13.72 68.9671 14.0827 70.2471 14.808C71.5485 15.5333 72.5725 16.5467 73.3191 17.848C74.0871 19.1493 74.4711 20.6853 74.4711 22.456C74.4711 24.2267 74.0871 25.7627 73.3191 27.064C72.5725 28.3653 71.5485 29.3893 70.2471 30.136C68.9671 30.8613 67.4845 31.224 65.7991 31.224ZM56.3271 31V7.256H60.3271V17.88L60.0071 22.424L60.1351 26.968V31H56.3271ZM65.3511 27.8C66.3111 27.8 67.1645 27.5867 67.9111 27.16C68.6791 26.7333 69.2871 26.1147 69.7351 25.304C70.1831 24.4933 70.4071 23.544 70.4071 22.456C70.4071 21.3467 70.1831 20.3973 69.7351 19.608C69.2871 18.7973 68.6791 18.1787 67.9111 17.752C67.1645 17.3253 66.3111 17.112 65.3511 17.112C64.3911 17.112 63.5271 17.3253 62.7591 17.752C61.9911 18.1787 61.3831 18.7973 60.9351 19.608C60.4871 20.3973 60.2631 21.3467 60.2631 22.456C60.2631 23.544 60.4871 24.4933 60.9351 25.304C61.3831 26.1147 61.9911 26.7333 62.7591 27.16C63.5271 27.5867 64.3911 27.8 65.3511 27.8ZM86.2966 31.224C84.398 31.224 82.734 30.8507 81.3046 30.104C79.8966 29.336 78.798 28.2907 78.0086 26.968C77.2406 25.6453 76.8566 24.1413 76.8566 22.456C76.8566 20.7493 77.23 19.2453 77.9766 17.944C78.7446 16.6213 79.79 15.5867 81.1126 14.84C82.4566 14.0933 83.982 13.72 85.6886 13.72C87.3526 13.72 88.8353 14.0827 90.1366 14.808C91.438 15.5333 92.462 16.5573 93.2086 17.88C93.9553 19.2027 94.3286 20.76 94.3286 22.552C94.3286 22.7227 94.318 22.9147 94.2966 23.128C94.2966 23.3413 94.286 23.544 94.2646 23.736H80.0246V21.08H92.1526L90.5846 21.912C90.606 20.9307 90.4033 20.0667 89.9766 19.32C89.55 18.5733 88.9633 17.9867 88.2166 17.56C87.4913 17.1333 86.6486 16.92 85.6886 16.92C84.7073 16.92 83.8433 17.1333 83.0966 17.56C82.3713 17.9867 81.7953 18.584 81.3686 19.352C80.9633 20.0987 80.7606 20.984 80.7606 22.008V22.648C80.7606 23.672 80.9953 24.5787 81.4646 25.368C81.934 26.1573 82.5953 26.7653 83.4486 27.192C84.302 27.6187 85.2833 27.832 86.3926 27.832C87.3526 27.832 88.2166 27.6827 88.9846 27.384C89.7526 27.0853 90.4353 26.616 91.0326 25.976L93.1766 28.44C92.4086 29.336 91.438 30.0293 90.2646 30.52C89.1126 30.9893 87.79 31.224 86.2966 31.224Z" fill="#EF53CD"/>
<path d="M3.008 60V37.6H12.8C15.232 37.6 17.3653 38.0693 19.2 39.008C21.0347 39.9467 22.464 41.248 23.488 42.912C24.512 44.576 25.024 46.5387 25.024 48.8C25.024 51.04 24.512 53.0027 23.488 54.688C22.464 56.352 21.0347 57.6533 19.2 58.592C17.3653 59.5307 15.232 60 12.8 60H3.008ZM7.168 56.48H12.608C14.2933 56.48 15.744 56.16 16.96 55.52C18.1973 54.88 19.1467 53.984 19.808 52.832C20.4907 51.68 20.832 50.336 20.832 48.8C20.832 47.2427 20.4907 45.8987 19.808 44.768C19.1467 43.616 18.1973 42.72 16.96 42.08C15.744 41.44 14.2933 41.12 12.608 41.12H7.168V56.48ZM37.0935 60.224C35.1948 60.224 33.5308 59.8507 32.1015 59.104C30.6935 58.336 29.5948 57.2907 28.8055 55.968C28.0375 54.6453 27.6535 53.1413 27.6535 51.456C27.6535 49.7493 28.0268 48.2453 28.7735 46.944C29.5415 45.6213 30.5868 44.5867 31.9095 43.84C33.2535 43.0933 34.7788 42.72 36.4855 42.72C38.1495 42.72 39.6322 43.0827 40.9335 43.808C42.2348 44.5333 43.2588 45.5573 44.0055 46.88C44.7522 48.2027 45.1255 49.76 45.1255 51.552C45.1255 51.7227 45.1148 51.9147 45.0935 52.128C45.0935 52.3413 45.0828 52.544 45.0615 52.736H30.8215V50.08H42.9495L41.3815 50.912C41.4028 49.9307 41.2002 49.0667 40.7735 48.32C40.3468 47.5733 39.7602 46.9867 39.0135 46.56C38.2882 46.1333 37.4455 45.92 36.4855 45.92C35.5042 45.92 34.6402 46.1333 33.8935 46.56C33.1682 46.9867 32.5922 47.584 32.1655 48.352C31.7602 49.0987 31.5575 49.984 31.5575 51.008V51.648C31.5575 52.672 31.7922 53.5787 32.2615 54.368C32.7308 55.1573 33.3922 55.7653 34.2455 56.192C35.0988 56.6187 36.0802 56.832 37.1895 56.832C38.1495 56.832 39.0135 56.6827 39.7815 56.384C40.5495 56.0853 41.2322 55.616 41.8295 54.976L43.9735 57.44C43.2055 58.336 42.2348 59.0293 41.0615 59.52C39.9095 59.9893 38.5868 60.224 37.0935 60.224ZM54.2478 60.224C52.8184 60.224 51.4424 60.0427 50.1198 59.68C48.8184 59.296 47.7838 58.8373 47.0158 58.304L48.5518 55.264C49.3198 55.7547 50.2371 56.16 51.3038 56.48C52.3704 56.8 53.4371 56.96 54.5038 56.96C55.7624 56.96 56.6691 56.7893 57.2238 56.448C57.7998 56.1067 58.0878 55.648 58.0878 55.072C58.0878 54.6027 57.8958 54.2507 57.5118 54.016C57.1278 53.76 56.6264 53.568 56.0078 53.44C55.3891 53.312 54.6958 53.1947 53.9278 53.088C53.1811 52.9813 52.4238 52.8427 51.6558 52.672C50.9091 52.48 50.2264 52.2133 49.6078 51.872C48.9891 51.5093 48.4878 51.0293 48.1038 50.432C47.7198 49.8347 47.5278 49.0453 47.5278 48.064C47.5278 46.976 47.8371 46.0373 48.4557 45.248C49.0744 44.4373 49.9384 43.8187 51.0477 43.392C52.1784 42.944 53.5118 42.72 55.0478 42.72C56.1998 42.72 57.3624 42.848 58.5358 43.104C59.7091 43.36 60.6798 43.7227 61.4478 44.192L59.9118 47.232C59.1011 46.7413 58.2798 46.4107 57.4478 46.24C56.6371 46.048 55.8264 45.952 55.0158 45.952C53.7998 45.952 52.8931 46.1333 52.2958 46.496C51.7198 46.8587 51.4318 47.3173 51.4318 47.872C51.4318 48.384 51.6238 48.768 52.0078 49.024C52.3918 49.28 52.8931 49.4827 53.5118 49.632C54.1304 49.7813 54.8131 49.9093 55.5598 50.016C56.3278 50.1013 57.0851 50.24 57.8318 50.432C58.5784 50.624 59.2611 50.8907 59.8798 51.232C60.5198 51.552 61.0318 52.0107 61.4158 52.608C61.7998 53.2053 61.9918 53.984 61.9918 54.944C61.9918 56.0107 61.6718 56.9387 61.0318 57.728C60.4131 58.5173 59.5278 59.136 58.3758 59.584C57.2238 60.0107 55.8478 60.224 54.2478 60.224ZM65.4365 60V42.912H69.4365V60H65.4365ZM67.4525 40.096C66.7058 40.096 66.0872 39.8613 65.5965 39.392C65.1272 38.9227 64.8925 38.3573 64.8925 37.696C64.8925 37.0133 65.1272 36.448 65.5965 36C66.0872 35.5307 66.7058 35.296 67.4525 35.296C68.1992 35.296 68.8072 35.52 69.2765 35.968C69.7672 36.3947 70.0125 36.9387 70.0125 37.6C70.0125 38.304 69.7778 38.9013 69.3085 39.392C68.8392 39.8613 68.2205 40.096 67.4525 40.096ZM82.4305 66.432C80.8518 66.432 79.3052 66.2187 77.7905 65.792C76.2972 65.3867 75.0705 64.7893 74.1105 64L75.9025 60.992C76.6492 61.6107 77.5878 62.1013 78.7185 62.464C79.8705 62.848 81.0332 63.04 82.2065 63.04C84.0838 63.04 85.4598 62.6027 86.3345 61.728C87.2092 60.8747 87.6465 59.584 87.6465 57.856V54.816L87.9665 50.944L87.8385 47.072V42.912H91.6465V57.408C91.6465 60.5013 90.8572 62.7733 89.2785 64.224C87.6998 65.696 85.4172 66.432 82.4305 66.432ZM81.9185 59.232C80.2972 59.232 78.8252 58.8907 77.5025 58.208C76.2012 57.504 75.1665 56.5333 74.3985 55.296C73.6518 54.0587 73.2785 52.608 73.2785 50.944C73.2785 49.3013 73.6518 47.8613 74.3985 46.624C75.1665 45.3867 76.2012 44.4267 77.5025 43.744C78.8252 43.0613 80.2972 42.72 81.9185 42.72C83.3692 42.72 84.6705 43.008 85.8225 43.584C86.9745 44.16 87.8918 45.056 88.5745 46.272C89.2785 47.488 89.6305 49.0453 89.6305 50.944C89.6305 52.8427 89.2785 54.4107 88.5745 55.648C87.8918 56.864 86.9745 57.7707 85.8225 58.368C84.6705 58.944 83.3692 59.232 81.9185 59.232ZM82.5265 55.84C83.5292 55.84 84.4252 55.6373 85.2145 55.232C86.0038 54.8053 86.6118 54.2293 87.0385 53.504C87.4865 52.7573 87.7105 51.904 87.7105 50.944C87.7105 49.984 87.4865 49.1413 87.0385 48.416C86.6118 47.6693 86.0038 47.104 85.2145 46.72C84.4252 46.3147 83.5292 46.112 82.5265 46.112C81.5238 46.112 80.6172 46.3147 79.8065 46.72C79.0172 47.104 78.3985 47.6693 77.9505 48.416C77.5238 49.1413 77.3105 49.984 77.3105 50.944C77.3105 51.904 77.5238 52.7573 77.9505 53.504C78.3985 54.2293 79.0172 54.8053 79.8065 55.232C80.6172 55.6373 81.5238 55.84 82.5265 55.84ZM106.601 42.72C107.967 42.72 109.183 42.9867 110.249 43.52C111.337 44.0533 112.191 44.8747 112.809 45.984C113.428 47.072 113.737 48.48 113.737 50.208V60H109.737V50.72C109.737 49.2053 109.375 48.0747 108.649 47.328C107.945 46.5813 106.953 46.208 105.673 46.208C104.735 46.208 103.903 46.4 103.177 46.784C102.452 47.168 101.887 47.744 101.481 48.512C101.097 49.2587 100.905 50.208 100.905 51.36V60H96.9053V42.912H100.713V47.52L100.041 46.112C100.639 45.024 101.503 44.192 102.633 43.616C103.785 43.0187 105.108 42.72 106.601 42.72Z" fill="#EF53CD"/>
</svg>
