<svg width="153" height="24" viewBox="0 0 153 24" fill="none" xmlns="http://www.w3.org/2000/svg">
<path d="M150.746 20.6684L149.1 20.8535V0H153V23.1362H147.882L131.855 2.28278L133.47 2.09769V23.1362H129.57V0H134.811L150.746 20.6684Z" fill="#FFF3F9"/>
<path d="M131.136 13.5116C131.116 14.9512 130.842 16.3085 130.313 17.5835C129.785 18.838 129.034 19.9486 128.059 20.9152C127.084 21.8817 125.896 22.6427 124.494 23.1979C123.113 23.7326 121.529 24 119.741 24C117.933 24 116.258 23.7224 114.714 23.1671C113.17 22.6118 111.819 21.8201 110.662 20.7918C109.524 19.7429 108.641 18.4782 108.011 16.9974C107.381 15.5167 107.066 13.8509 107.066 12C107.066 10.1491 107.381 8.48329 108.011 7.00257C108.661 5.52185 109.565 4.26735 110.723 3.23907C111.88 2.19023 113.241 1.38817 114.805 0.832905C116.369 0.277635 118.086 0 119.954 0C122.29 0 124.332 0.390746 126.078 1.17224C127.846 1.93316 129.267 2.98201 130.344 4.31877C131.42 5.65553 132.081 7.18766 132.324 8.91517H128.242C128.018 7.82519 127.531 6.87918 126.779 6.07712C126.048 5.27507 125.103 4.6581 123.946 4.22622C122.788 3.79435 121.447 3.57841 119.924 3.57841C118.136 3.57841 116.583 3.91774 115.262 4.5964C113.962 5.2545 112.947 6.2108 112.215 7.4653C111.505 8.71979 111.149 10.2314 111.149 12C111.149 13.7686 111.515 15.2905 112.246 16.5656C112.998 17.8406 114.054 18.8175 115.415 19.4961C116.776 20.1748 118.38 20.5141 120.229 20.5141C122.016 20.5141 123.58 20.2057 124.921 19.5887C126.261 18.9717 127.317 18.1183 128.089 17.0283C128.861 15.9177 129.278 14.6324 129.338 13.1722L131.136 13.5116ZM121.021 15.2699V12.1851H132.568V23.5681H129.582L129.095 13.9743L130.039 15.2699H121.021Z" fill="#FFF3F9"/>
<path d="M106.042 0H110.064V23.1362H106.042V0Z" fill="#FFF3F9"/>
<path d="M86.9199 16.0411H91.0026C91.1245 16.9666 91.5003 17.7789 92.1299 18.4781C92.7799 19.1774 93.633 19.7224 94.6893 20.1131C95.7455 20.4833 96.9642 20.6684 98.3454 20.6684C100.397 20.6684 102.022 20.3496 103.22 19.7121C104.419 19.054 105.018 18.1697 105.018 17.0591C105.018 16.1542 104.673 15.4756 103.982 15.0231C103.291 14.5707 102.042 14.2314 100.234 14.0051L95.2986 13.3573C92.5362 12.9871 90.5253 12.2982 89.266 11.2905C88.0269 10.2622 87.4074 8.81234 87.4074 6.94087C87.4074 5.52185 87.8238 4.2982 88.6566 3.26992C89.5097 2.22108 90.7081 1.41902 92.2518 0.863753C93.7955 0.287918 95.6033 0 97.6751 0C99.7266 0 101.545 0.308483 103.129 0.925451C104.713 1.54242 105.973 2.40617 106.907 3.51671C107.862 4.60669 108.38 5.89203 108.461 7.37275H104.378C104.276 6.55013 103.931 5.84062 103.342 5.24422C102.773 4.64782 102.002 4.18509 101.027 3.85604C100.052 3.50643 98.904 3.33162 97.5837 3.33162C95.715 3.33162 94.2221 3.6401 93.1049 4.25707C91.9878 4.87404 91.4292 5.71722 91.4292 6.78663C91.4292 7.60925 91.7542 8.24679 92.4041 8.69923C93.0744 9.1311 94.2322 9.46015 95.8775 9.68638L100.874 10.3959C102.926 10.6838 104.541 11.0746 105.719 11.5681C106.917 12.0411 107.77 12.6889 108.278 13.5116C108.786 14.3136 109.04 15.3522 109.04 16.6272C109.04 18.108 108.593 19.4036 107.699 20.5141C106.805 21.6247 105.546 22.4884 103.921 23.1054C102.316 23.7018 100.438 24 98.2845 24C96.0908 24 94.151 23.671 92.4651 23.0129C90.7995 22.3342 89.4792 21.3985 88.5043 20.2057C87.5293 19.0129 87.0012 17.6247 86.9199 16.0411Z" fill="#FFF3F9"/>
<path d="M89.0346 9.87147V13.2648H73.0694V9.87147H89.0346ZM75.7202 11.5681L74.1054 21.9023L72.1859 19.6195H89.9182V23.1362H69.9922L71.8203 11.5681L69.9922 0H89.7659V3.51671H72.1859L74.1054 1.23393L75.7202 11.5681Z" fill="#FFF3F9"/>
<path d="M59.9185 0C62.5184 0 64.7933 0.483291 66.7433 1.44987C68.7135 2.41645 70.2471 3.77378 71.3439 5.52185C72.4408 7.24936 72.9892 9.26478 72.9892 11.5681C72.9892 13.8715 72.4408 15.8972 71.3439 17.6452C70.2471 19.3727 68.7135 20.7198 66.7433 21.6864C64.7933 22.653 62.5184 23.1362 59.9185 23.1362H49.5898V0H59.9185ZM53.6116 21.7172L51.3874 19.5578H60.1927C61.9395 19.5578 63.4629 19.2288 64.7629 18.5707C66.0831 17.892 67.0987 16.9563 67.8097 15.7635C68.5409 14.5501 68.9065 13.1517 68.9065 11.5681C68.9065 9.96401 68.5409 8.56555 67.8097 7.37275C67.0987 6.17995 66.0831 5.2545 64.7629 4.5964C63.4629 3.91774 61.9395 3.57841 60.1927 3.57841H51.3874L53.6116 1.41902V21.7172Z" fill="#FFF3F9"/>
<path d="M65.4292 9.87147V13.2648H49.464V9.87147H65.4292ZM52.1147 11.5681L50.4999 21.9023L48.5804 19.6195H66.3127V23.1362H46.3867L48.2148 11.5681L46.3867 0H66.1604V3.51671H48.5804L50.4999 1.23393L52.1147 11.5681Z" fill="#EF53CD"/>
<path d="M41.2186 11.6607L41.6146 10.7661C43.4224 10.7866 44.895 11.0643 46.0325 11.599C47.1903 12.1337 48.0332 12.8535 48.5613 13.7584C49.1097 14.6632 49.384 15.6812 49.384 16.8123C49.384 18.0463 49.0894 19.1362 48.5004 20.0823C47.9317 21.0283 47.0887 21.7789 45.9715 22.3342C44.8544 22.8689 43.463 23.1362 41.7974 23.1362H26.5635L28.3611 11.2596L26.5635 0H41.249C43.3615 0 44.9864 0.503856 46.1239 1.51157C47.2817 2.49871 47.8606 3.86632 47.8606 5.6144C47.8606 6.53985 47.6371 7.44473 47.1903 8.32905C46.7637 9.1928 46.063 9.93316 45.088 10.5501C44.1333 11.1465 42.8435 11.5167 41.2186 11.6607ZM30.6157 21.9949L29.0618 19.8663H41.3404C42.5998 19.8663 43.5747 19.5784 44.2653 19.0026C44.9763 18.4062 45.3317 17.563 45.3317 16.473C45.3317 15.3213 44.9153 14.4267 44.0825 13.7892C43.2701 13.1517 42.0615 12.8329 40.4569 12.8329H30.5548V9.68638H40.0608C41.1373 9.68638 42.031 9.38817 42.7419 8.79177C43.4529 8.17481 43.8083 7.30077 43.8083 6.16967C43.8083 5.32648 43.5138 4.63753 42.9248 4.10283C42.3357 3.54756 41.4826 3.26992 40.3654 3.26992H29.0618L30.6157 1.14139L32.2305 11.2596L30.6157 21.9949Z" fill="#EF53CD"/>
<path d="M23.54 0H27.5618V23.1362H23.54V0Z" fill="#EF53CD"/>
<path d="M14.2895 21.4087H12.4004L22.2416 0H26.5376L15.5082 23.1362H11.0294L0 0H4.32645L14.2895 21.4087Z" fill="#EF53CD"/>
</svg>
