<svg width="83" height="100" viewBox="0 0 83 100" fill="none" xmlns="http://www.w3.org/2000/svg">
<g filter="url(#filter0_d_999_11569)">
<path d="M39.304 91.792C33.0747 91.792 26.8453 91.024 20.616 89.488C14.472 87.952 9.096 85.776 4.488 82.96L13.704 63.888C17.288 66.2773 21.256 68.112 25.608 69.392C30.0453 70.672 34.3547 71.312 38.536 71.312C42.888 71.312 46.344 70.5013 48.904 68.88C51.464 67.2587 52.744 64.9547 52.744 61.968C52.744 59.3227 51.6773 57.232 49.544 55.696C47.4107 54.0747 43.912 53.264 39.048 53.264H28.424V37.264L52.488 11.28L54.92 19.984H9.096V0.399994H73.864V16.272L49.8 42.256L37.384 35.216H44.296C55.4747 35.216 63.9227 37.7333 69.64 42.768C75.4427 47.7173 78.344 54.1173 78.344 61.968C78.344 67.088 76.936 71.9093 74.12 76.432C71.3893 80.9547 67.1653 84.6667 61.448 87.568C55.7307 90.384 48.3493 91.792 39.304 91.792Z" fill="#EF53CD"/>
</g>
<defs>
<filter id="filter0_d_999_11569" x="0.488281" y="0.400391" width="81.8555" height="99.3926" filterUnits="userSpaceOnUse" color-interpolation-filters="sRGB">
<feFlood flood-opacity="0" result="BackgroundImageFix"/>
<feColorMatrix in="SourceAlpha" type="matrix" values="0 0 0 0 0 0 0 0 0 0 0 0 0 0 0 0 0 0 127 0" result="hardAlpha"/>
<feOffset dy="4"/>
<feGaussianBlur stdDeviation="2"/>
<feComposite in2="hardAlpha" operator="out"/>
<feColorMatrix type="matrix" values="0 0 0 0 0 0 0 0 0 0 0 0 0 0 0 0 0 0 0.25 0"/>
<feBlend mode="normal" in2="BackgroundImageFix" result="effect1_dropShadow_999_11569"/>
<feBlend mode="normal" in="SourceGraphic" in2="effect1_dropShadow_999_11569" result="shape"/>
</filter>
</defs>
</svg>
