<svg width="83" height="100" viewBox="0 0 83 100" fill="none" xmlns="http://www.w3.org/2000/svg">
<g filter="url(#filter0_d_999_11573)">
<path d="M8.84 92V76.128L42.376 44.768C44.7653 42.5493 46.5147 40.5867 47.624 38.88C48.8187 37.1733 49.5867 35.6373 49.928 34.272C50.3547 32.8213 50.568 31.4987 50.568 30.304C50.568 27.4027 49.5867 25.1413 47.624 23.52C45.7467 21.8987 42.888 21.088 39.048 21.088C35.8053 21.088 32.776 21.8133 29.96 23.264C27.144 24.7147 24.84 26.8907 23.048 29.792L4.232 19.296C7.56 13.664 12.3813 9.14133 18.696 5.728C25.0107 2.31466 32.5627 0.607994 41.352 0.607994C48.264 0.607994 54.3227 1.71733 59.528 3.936C64.7333 6.15466 68.7867 9.31199 71.688 13.408C74.6747 17.504 76.168 22.3253 76.168 27.872C76.168 30.7733 75.784 33.6747 75.016 36.576C74.248 39.392 72.7547 42.4213 70.536 45.664C68.4027 48.8213 65.2027 52.3627 60.936 56.288L34.312 80.864L30.088 71.904H78.6V92H8.84Z" fill="#EF53CD"/>
</g>
<defs>
<filter id="filter0_d_999_11573" x="0.232422" y="0.607422" width="82.3672" height="99.3926" filterUnits="userSpaceOnUse" color-interpolation-filters="sRGB">
<feFlood flood-opacity="0" result="BackgroundImageFix"/>
<feColorMatrix in="SourceAlpha" type="matrix" values="0 0 0 0 0 0 0 0 0 0 0 0 0 0 0 0 0 0 127 0" result="hardAlpha"/>
<feOffset dy="4"/>
<feGaussianBlur stdDeviation="2"/>
<feComposite in2="hardAlpha" operator="out"/>
<feColorMatrix type="matrix" values="0 0 0 0 0 0 0 0 0 0 0 0 0 0 0 0 0 0 0.25 0"/>
<feBlend mode="normal" in2="BackgroundImageFix" result="effect1_dropShadow_999_11573"/>
<feBlend mode="normal" in="SourceGraphic" in2="effect1_dropShadow_999_11573" result="shape"/>
</filter>
</defs>
</svg>
